<svg xmlns="http://www.w3.org/2000/svg" viewBox="0 0 100 100" role="img" aria-label="Outlook on the Desktop"><defs><linearGradient id="baseGradient" x1="0%" y1="0%" x2="100%" y2="100%"><stop offset="0%" stop-color="#0078d4"/><stop offset="100%" stop-color="#106ebe"/></linearGradient><linearGradient id="accentGradient" x1="0%" y1="0%" x2="100%" y2="100%"><stop offset="0%" stop-color="#ffffff" stop-opacity="0.4"/><stop offset="100%" stop-color="transparent" stop-opacity="0.1"/></linearGradient><filter id="softGlow" x="-20%" y="-20%" width="140%" height="140%"><feGaussianBlur stdDeviation="3" result="blur"/><feComposite in="SourceGraphic" in2="blur" operator="over"/></filter></defs><g filter="url(#softGlow)" opacity="0.15"><g><path d="M 12 18 L 88 18 C 92 18, 92 20, 92 24 L 92 70 C 92 74, 90 74, 86 74 L 14 74 C 10 74, 8 74, 8 70 L 8 24 C 8 20, 8 18, 12 18 Z" fill="url(#baseGradient)" stroke="rgba(255, 255, 255, 0.45)" stroke-width="3"/><path d="M 40 74 L 35 88 L 65 88 L 60 74 Z" fill="url(#baseGradient)" opacity="0.8"/><rect x="30" y="86" width="40" height="4" rx="2" fill="url(#baseGradient)"/></g></g><g><path d="M 12 18 L 88 18 C 92 18, 92 20, 92 24 L 92 70 C 92 74, 90 74, 86 74 L 14 74 C 10 74, 8 74, 8 70 L 8 24 C 8 20, 8 18, 12 18 Z" fill="url(#baseGradient)" stroke="rgba(255, 255, 255, 0.45)" stroke-width="3"/><path d="M 40 74 L 35 88 L 65 88 L 60 74 Z" fill="url(#baseGradient)" opacity="0.8"/><rect x="30" y="86" width="40" height="4" rx="2" fill="url(#baseGradient)"/></g><path d="M 16 16 L 84 16 C 85.5 16, 85.5 16.5, 85.5 18 L 85.5 82 C 85.5 83.5, 85 84, 84 84 L 16 84 C 14.5 84, 14 83.5, 14 82 L 14 18 C 14 16.5, 14.5 16, 16 16 Z" fill="url(#accentGradient)" opacity="0.85" stroke="rgba(255, 255, 255, 0.15)" stroke-width="1.5" pointer-events="none"/><g transform="translate(1, 1)"><rect x="22" y="28" width="24" height="44" rx="4" fill="#00a1f1" opacity="0.9" filter="url(#softGlow)"/><path d="M 44 32 L 72 32 C 75 32, 76 33, 76 36 L 76 64 C 76 67, 75 68, 72 68 L 44 68 Z" fill="#ffffff" opacity="0.95"/><rect x="50" y="38" width="6" height="6" rx="1.5" fill="#0078d4" opacity="0.8"/><rect x="58" y="38" width="6" height="6" rx="1.5" fill="#0078d4" opacity="0.8"/><rect x="66" y="38" width="6" height="6" rx="1.5" fill="#0078d4" opacity="0.8"/><rect x="50" y="46" width="6" height="6" rx="1.5" fill="#0078d4" opacity="0.8"/><rect x="58" y="46" width="6" height="6" rx="1.5" fill="#0078d4" opacity="0.8"/><rect x="66" y="46" width="6" height="6" rx="1.5" fill="#00a1f1" opacity="0.8"/><rect x="50" y="54" width="6" height="6" rx="1.5" fill="#0078d4" opacity="0.3"/><rect x="58" y="54" width="6" height="6" rx="1.5" fill="#0078d4" opacity="0.3"/><rect x="66" y="54" width="6" height="6" rx="1.5" fill="#0078d4" opacity="0.3"/><text x="34" y="57" fill="#ffffff" font-size="18" font-family="Space Grotesk, sans-serif" font-weight="bold" text-anchor="middle">O</text></g></svg>
